<svg width="300" height="120" fill="none" xmlns="http://www.w3.org/2000/svg"><g clip-path="url(#a)"><g clip-path="url(#b)" fill="#000"><path d="M197.761 86.904c-3.415-5.945-13.209-10-19.729-7.88A40.47 40.47 0 0 1 165.5 81c-3.078 0-5.833 2.205-6.489 5.212C154.794 105.533 137.586 120 117 120c-15.147 0-28.464-7.832-36.124-19.666-2.573-3.974-7.699-5.914-12.34-4.981A33.15 33.15 0 0 1 62 96c-18.225 0-33-14.775-33-33s14.775-33 33-33c8.079 0 15.48 2.903 21.216 7.723 3.623 3.044 9.05 3.782 13.202 1.513A42.809 42.809 0 0 1 117 34c4.588 0 8.865-3.055 10.436-7.365C133.097 11.095 148.003 0 165.5 0 187.868 0 206 18.133 206 40.5c0 .317.373.497.621.3A35.846 35.846 0 0 1 229 33c19.882 0 36 16.118 36 36s-16.118 36-36 36c-13.365 0-25.029-7.283-31.239-18.096Z" fill-opacity=".03"/><path d="M240 30.144 234.144 36 232 28l8 2.144Z"/><path fill-rule="evenodd" clip-rule="evenodd" d="M48 84.5a2.5 2.5 0 1 0 0-5 2.5 2.5 0 0 0 0 5Zm0 1.5a4 4 0 1 0 0-8 4 4 0 0 0 0 8Zm204-15.75a.75.75 0 0 1 .75-.75h.969a.75.75 0 0 1 0 1.5h-.969a.75.75 0 0 1-.75-.75Zm4.844 0a.75.75 0 0 1 .75-.75h1.937a.75.75 0 0 1 0 1.5h-1.937a.75.75 0 0 1-.75-.75Zm5.812 0a.75.75 0 0 1 .75-.75h1.938a.75.75 0 0 1 0 1.5h-1.938a.75.75 0 0 1-.75-.75Zm5.813 0a.75.75 0 0 1 .75-.75h1.937a.75.75 0 0 1 0 1.5h-1.937a.75.75 0 0 1-.75-.75Zm5.812 0a.75.75 0 0 1 .75-.75h1.938a.75.75 0 0 1 0 1.5h-1.938a.75.75 0 0 1-.75-.75Zm5.813 0a.75.75 0 0 1 .75-.75h1.937a.75.75 0 0 1 0 1.5h-1.937a.75.75 0 0 1-.75-.75Zm5.812 0a.75.75 0 0 1 .75-.75h1.938a.75.75 0 0 1 0 1.5h-1.938a.75.75 0 0 1-.75-.75Zm5.813 0a.75.75 0 0 1 .75-.75h1.937a.75.75 0 0 1 0 1.5h-1.937a.75.75 0 0 1-.75-.75Zm5.812 0a.75.75 0 0 1 .75-.75h.969a.75.75 0 0 1 0 1.5h-.969a.75.75 0 0 1-.75-.75ZM0 59.25a.75.75 0 0 1 .75-.75h.975a.75.75 0 0 1 0 1.5H.75a.75.75 0 0 1-.75-.75Zm4.875 0a.75.75 0 0 1 .75-.75h1.95a.75.75 0 0 1 0 1.5h-1.95a.75.75 0 0 1-.75-.75Zm5.85 0a.75.75 0 0 1 .75-.75h1.95a.75.75 0 0 1 0 1.5h-1.95a.75.75 0 0 1-.75-.75Zm5.85 0a.75.75 0 0 1 .75-.75h1.95a.75.75 0 0 1 0 1.5h-1.95a.75.75 0 0 1-.75-.75Zm5.85 0a.75.75 0 0 1 .75-.75h1.95a.75.75 0 0 1 0 1.5h-1.95a.75.75 0 0 1-.75-.75Zm5.85 0a.75.75 0 0 1 .75-.75h1.95a.75.75 0 0 1 0 1.5h-1.95a.75.75 0 0 1-.75-.75Zm5.85 0a.75.75 0 0 1 .75-.75h1.95a.75.75 0 0 1 0 1.5h-1.95a.75.75 0 0 1-.75-.75Zm5.85 0a.75.75 0 0 1 .75-.75h1.95a.75.75 0 0 1 0 1.5h-1.95a.75.75 0 0 1-.75-.75Zm5.85 0a.75.75 0 0 1 .75-.75h1.95a.75.75 0 0 1 0 1.5h-1.95a.75.75 0 0 1-.75-.75Zm5.85 0a.75.75 0 0 1 .75-.75h1.95a.75.75 0 0 1 0 1.5h-1.95a.75.75 0 0 1-.75-.75Zm5.85 0a.75.75 0 0 1 .75-.75h.975a.75.75 0 0 1 0 1.5h-.975a.75.75 0 0 1-.75-.75Z"/></g><path d="M124.955 39.96a2.499 2.499 0 0 1 2.174-1.516l88.241-4.412a2.499 2.499 0 0 1 1.892.73l1.371 1.37a4.998 4.998 0 0 1 1.062 5.5L198.376 91.55a2.5 2.5 0 0 1-2.299 1.518h-90.018c-1.793 0-3.003-1.833-2.299-3.482l21.195-49.627Z" fill="#111010"/><path d="M122.633 35.455a2.5 2.5 0 0 1 2.282-1.478h89.976c1.812 0 3.022 1.868 2.281 3.522l-22.854 51.023H98.863l23.77-53.067Z" fill="#fff"/><path fill-rule="evenodd" clip-rule="evenodd" d="M214.891 35.227h-89.976c-.493 0-.94.289-1.141.739l-22.981 51.306h92.715l22.523-50.285a1.25 1.25 0 0 0-1.14-1.76Zm-20.573 53.295 22.854-51.024c.741-1.653-.469-3.521-2.281-3.521h-89.976a2.5 2.5 0 0 0-2.282 1.478l-23.77 53.067h95.455Z" fill="#111010"/><path d="M124.413 37.732a2.5 2.5 0 0 1 2.284-1.484h83.092c1.809 0 3.02 1.863 2.285 3.516l-20.669 46.484h-86.64a1.25 1.25 0 0 1-1.142-1.758l20.79-46.758Z" fill="#fff"/><path fill-rule="evenodd" clip-rule="evenodd" d="M209.789 37.498h-83.092c-.493 0-.941.29-1.142.742l-20.79 46.758h85.828l20.338-45.742a1.25 1.25 0 0 0-1.142-1.758Zm-18.384 48.75 20.669-46.484c.735-1.654-.476-3.516-2.285-3.516h-83.092a2.5 2.5 0 0 0-2.284 1.484l-20.79 46.758a1.25 1.25 0 0 0 1.142 1.758h86.64Z" fill="#111010"/><path d="M75 89.887a2.5 2.5 0 0 1 2.5-2.5h114.318a2.5 2.5 0 0 1 2.5 2.5v.681a2.5 2.5 0 0 1-2.5 2.5H77.5a2.5 2.5 0 0 1-2.5-2.5v-.681Zm78.696-25.651h10.316l-9.378 21.1h-10.316l9.378-21.1Z" fill="#111010"/><path fill-rule="evenodd" clip-rule="evenodd" d="m154.509 65.486-8.267 18.6h7.58l8.267-18.6h-7.58Zm-.813-1.25-9.378 21.1h10.316l9.378-21.1h-10.316Z" fill="#111010"/><path d="M136.65 64.236h10.316l-9.378 21.1h-10.316l9.378-21.1Z" fill="#111010"/><path fill-rule="evenodd" clip-rule="evenodd" d="m137.463 65.486-8.267 18.6h7.58l8.267-18.6h-7.58Zm-.813-1.25-9.378 21.1h10.316l9.378-21.1H136.65Z" fill="#111010"/><path d="M178.409 45.338h10.315l-17.679 40h-10.316l17.68-40Z" fill="#111010"/><path fill-rule="evenodd" clip-rule="evenodd" d="m179.223 46.588-16.574 37.5h7.582l16.574-37.5h-7.582Zm-.814-1.25-17.68 40h10.316l17.679-40h-10.315Z" fill="#111010"/><path d="M188.068 58.406h10.316l-12.099 26.932h-10.316l12.099-26.932Z" fill="#111010"/><path fill-rule="evenodd" clip-rule="evenodd" d="m188.877 59.656-10.976 24.432h7.575l10.976-24.432h-7.575Zm-.809-1.25-12.099 26.932h10.316l12.099-26.932h-10.316Z" fill="#111010"/><path d="M111.72 25.265a2.5 2.5 0 0 1 2.298-1.515h65.146c1.795 0 3.005 1.835 2.298 3.485l-20.147 47.01a2.5 2.5 0 0 1-2.298 1.515H93.871c-1.795 0-3.005-1.835-2.298-3.484l20.147-47.01Z" fill="#fff"/><path fill-rule="evenodd" clip-rule="evenodd" d="M179.164 25h-65.146c-.5 0-.952.298-1.149.758l-20.147 47.01a1.25 1.25 0 0 0 1.149 1.742h65.146c.5 0 .952-.297 1.149-.757l20.147-47.01A1.25 1.25 0 0 0 179.164 25Zm-65.146-1.25a2.5 2.5 0 0 0-2.298 1.515l-20.147 47.01c-.707 1.65.503 3.485 2.298 3.485h65.146a2.5 2.5 0 0 0 2.298-1.515l20.147-47.01c.707-1.65-.503-3.485-2.298-3.485h-65.146Z" fill="#111010"/><path d="M108.005 25.265a2.498 2.498 0 0 1 2.297-1.515h65.146c1.795 0 3.005 1.835 2.298 3.485l-20.147 47.01a2.5 2.5 0 0 1-2.298 1.515H90.155c-1.795 0-3.005-1.835-2.298-3.484l20.148-47.01Z" fill="#111010"/><path d="M109.847 27.524a2.499 2.499 0 0 1 2.293-1.505h60.185c1.8 0 3.01 1.845 2.293 3.496l-18.556 42.728a2.5 2.5 0 0 1-2.293 1.504H93.584c-1.8 0-3.01-1.845-2.293-3.496l18.556-42.727Z" fill="#111010"/><path fill-rule="evenodd" clip-rule="evenodd" d="M172.325 27.27H112.14a1.25 1.25 0 0 0-1.147.752L92.437 70.749a1.25 1.25 0 0 0 1.147 1.748h60.185c.498 0 .948-.296 1.147-.752l18.555-42.728a1.25 1.25 0 0 0-1.146-1.747Zm-60.185-1.25c-.996 0-1.897.59-2.293 1.504L91.291 70.25c-.717 1.65.493 3.496 2.293 3.496h60.185a2.5 2.5 0 0 0 2.293-1.504l18.556-42.728c.717-1.65-.493-3.495-2.293-3.495H112.14Z" fill="#fff"/><path fill-rule="evenodd" clip-rule="evenodd" d="M105.625 37.385c0-.345.28-.625.625-.625h63.636a.624.624 0 1 1 0 1.25H106.25a.625.625 0 0 1-.625-.625Zm-3.978 9.09c0-.346.28-.625.625-.625h64.205a.625.625 0 0 1 0 1.25h-64.205a.625.625 0 0 1-.625-.625Zm-3.407 9.091c0-.345.28-.625.624-.625h63.637a.625.625 0 0 1 0 1.25H98.864a.625.625 0 0 1-.625-.625Zm-4.547 9.09c0-.345.28-.625.625-.625h63.637a.625.625 0 0 1 0 1.25H94.318a.625.625 0 0 1-.625-.625Z" fill="#fff"/><path fill-rule="evenodd" clip-rule="evenodd" d="M126.512 36.811c.316.14.459.508.32.824l-15.764 35.797a.625.625 0 0 1-1.144-.504l15.764-35.797a.625.625 0 0 1 .824-.32Zm21.591 0c.315.14.459.508.32.824l-15.764 35.797a.625.625 0 0 1-1.144-.504l15.764-35.797a.625.625 0 0 1 .824-.32Z" fill="#fff"/><path fill-rule="evenodd" clip-rule="evenodd" d="M225 69.205h-31.818V93.07c0 1.882 7.122 3.409 15.909 3.409 8.786 0 15.909-1.526 15.909-3.41V69.206Z" fill="#111010"/><path fill-rule="evenodd" clip-rule="evenodd" d="M223.75 70.455h-29.318v22.46c.086.083.259.21.565.366.666.337 1.711.677 3.106.976 2.77.594 6.655.97 10.988.97 4.332 0 8.217-.376 10.987-.97 1.395-.299 2.441-.639 3.107-.976.305-.155.478-.283.565-.366v-22.46Zm1.25-1.25V93.07c0 1.882-7.123 3.409-15.909 3.409-8.787 0-15.909-1.526-15.909-3.41V69.206H225Z" fill="#111010"/><path fill-rule="evenodd" clip-rule="evenodd" d="M225 77.152h-.152v-.023l.002-.034a.59.59 0 0 1 .04-.152l.002-.005c.01-.02.017-.03.017-.03s-.007.01-.026.028c-.078.08-.264.22-.625.395-.716.347-1.85.698-3.387 1.006-1.521.305-3.347.55-5.375.719a78.234 78.234 0 0 1-6.405.255 78.32 78.32 0 0 1-6.404-.255c-2.029-.169-3.854-.414-5.375-.72-1.537-.307-2.672-.658-3.388-1.005-.36-.174-.546-.315-.625-.395-.019-.018-.026-.028-.026-.028s.008.01.017.03l.003.005a.512.512 0 0 1 .042.186v.023h-.153v1.204c.063.034.129.067.198.1.854.414 2.107.79 3.686 1.106 1.579.317 3.454.568 5.517.74 2.064.17 4.275.259 6.508.259a79.14 79.14 0 0 0 6.508-.26c2.064-.17 3.938-.422 5.518-.739 1.579-.316 2.831-.692 3.686-1.105.068-.033.134-.067.197-.1v-1.205Zm0 7.954h-.152v-.022l.001-.013.001-.022a.588.588 0 0 1 .04-.152l.002-.005c.01-.02.017-.03.017-.03s-.007.01-.026.03c-.078.079-.264.22-.625.394-.716.347-1.85.697-3.387 1.005-1.521.305-3.347.55-5.375.72a78.19 78.19 0 0 1-6.405.255c-2.201 0-4.378-.087-6.404-.256-2.029-.168-3.854-.414-5.375-.719-1.537-.308-2.672-.658-3.388-1.005-.36-.175-.546-.315-.625-.395l-.026-.028s.008.01.017.03l.003.004a.513.513 0 0 1 .042.187v.022h-.153v1.205c.063.033.129.067.198.1.854.414 2.107.79 3.686 1.106 1.579.317 3.454.568 5.517.739 2.064.171 4.275.26 6.508.26 2.234 0 4.445-.089 6.508-.26 2.064-.171 3.938-.422 5.518-.739 1.579-.316 2.831-.692 3.686-1.106.068-.033.134-.066.197-.1v-1.205Z" fill="#fff"/><path d="M225 69.204c0 1.883-7.123 3.41-15.909 3.41-8.787 0-15.909-1.527-15.909-3.41 0-1.883 7.122-3.41 15.909-3.41 8.786 0 15.909 1.527 15.909 3.41Z" fill="#fff"/><path fill-rule="evenodd" clip-rule="evenodd" d="M223.552 69.204a3.453 3.453 0 0 0-.367-.212c-.666-.337-1.712-.677-3.107-.976-2.77-.594-6.655-.971-10.987-.971-4.333 0-8.218.377-10.988.97-1.395.3-2.44.64-3.106.977a3.48 3.48 0 0 0-.368.212c.093.062.213.134.368.212.666.337 1.711.677 3.106.976 2.77.594 6.655.971 10.988.971 4.332 0 8.217-.377 10.987-.97 1.395-.3 2.441-.64 3.107-.977.154-.078.275-.15.367-.212Zm-14.461 3.41c8.786 0 15.909-1.527 15.909-3.41 0-1.883-7.123-3.41-15.909-3.41-8.787 0-15.909 1.527-15.909 3.41 0 1.883 7.122 3.41 15.909 3.41Z" fill="#111010"/><path d="M224.999 61.816a2.841 2.841 0 1 1-5.682 0 2.841 2.841 0 0 1 5.682 0Z" fill="#111010"/><path fill-rule="evenodd" clip-rule="evenodd" d="m183.74 54.463 3.04 7.295h14.097l4.861-4.861v4.86h15.852v1.25h-17.102v-3.093l-3.093 3.094h-15.448l-2.643-6.341-9.182 9.182h-9.918v-1.25h9.4l10.136-10.136Z" fill="#111010"/><path fill-rule="evenodd" clip-rule="evenodd" d="m184.201 55.57-.103-.246-.359-.861-.66.66-9.476 9.476h-3.709l-.552 1.25h4.779l.183-.183 8.999-9 .201.481.697-1.577Zm12.114 7.438h-10.316l.675-1.502.105.252h10.097l-.561 1.25Zm14.38 0h-6.208v-.31l1.25-2.782v1.842h5.494l-.536 1.25Z" fill="#111010"/><path fill-rule="evenodd" clip-rule="evenodd" d="m184.201 55.57-.462-1.107-10.136 10.136h-3.709l-.552 1.25h4.779l9.182-9.182.201.48.697-1.577Zm2.473 5.936.105.252h10.097l-.561 1.25h-10.316l.675-1.502Zm19.063.252v-1.842l-1.25 2.783v.309h6.208l.536-1.25h-5.494Z" fill="#fff"/></g><defs><clipPath id="a"><path fill="#fff" d="M0 0h300v120H0z"/></clipPath><clipPath id="b"><path fill="#fff" d="M0 0h300v120H0z"/></clipPath></defs></svg>